<svg width="151" height="151" viewBox="0 0 151 151" fill="none" xmlns="http://www.w3.org/2000/svg">
<rect x="0.666504" y="0.09375" width="150" height="150" rx="75" fill="#656574"/>
<mask id="mask0_23_132" style="mask-type:alpha" maskUnits="userSpaceOnUse" x="0" y="0" width="151" height="151">
<rect x="0.666504" y="0.09375" width="150" height="150" rx="75" fill="#656574"/>
</mask>
<g mask="url(#mask0_23_132)">
<path d="M75.9998 35.6867C69.0453 35.6867 62.3756 38.36 57.4579 43.1184C52.5403 47.8769 49.7776 54.3307 49.7776 61.0602C49.7776 67.7896 52.5403 74.2434 57.4579 79.0019C62.3756 83.7603 69.0453 86.4336 75.9998 86.4336C82.9544 86.4336 89.6241 83.7603 94.5418 79.0019C99.4594 74.2434 102.222 67.7896 102.222 61.0602C102.222 54.3307 99.4594 47.8769 94.5418 43.1184C89.6241 38.36 82.9544 35.6867 75.9998 35.6867ZM36.6665 61.0602C36.6665 50.966 40.8106 41.2852 48.187 34.1476C55.5634 27.0099 65.568 23 75.9998 23C86.4317 23 96.4363 27.0099 103.813 34.1476C111.189 41.2852 115.333 50.966 115.333 61.0602C115.333 71.1543 111.189 80.8351 103.813 87.9727C96.4363 95.1104 86.4317 99.1203 75.9998 99.1203C65.568 99.1203 55.5634 95.1104 48.187 87.9727C40.8106 80.8351 36.6665 71.1543 36.6665 61.0602ZM49.7776 124.494C44.5617 124.494 39.5594 126.499 35.8712 130.068C32.183 133.636 30.111 138.477 30.111 143.524C30.111 145.206 29.4203 146.82 28.1909 148.009C26.9615 149.199 25.294 149.867 23.5554 149.867C21.8168 149.867 20.1493 149.199 18.9199 148.009C17.6905 146.82 16.9998 145.206 16.9998 143.524C16.9998 135.112 20.4532 127.045 26.6002 121.097C32.7473 115.149 41.0844 111.807 49.7776 111.807H102.222C110.915 111.807 119.252 115.149 125.399 121.097C131.546 127.045 135 135.112 135 143.524C135 145.206 134.309 146.82 133.08 148.009C131.85 149.199 130.183 149.867 128.444 149.867C126.706 149.867 125.038 149.199 123.809 148.009C122.579 146.82 121.889 145.206 121.889 143.524C121.889 138.477 119.817 133.636 116.129 130.068C112.44 126.499 107.438 124.494 102.222 124.494H49.7776Z" fill="#DDDDDD"/>
</g>
</svg>
