<svg width="190" height="190" viewBox="0 0 190 190" fill="none" xmlns="http://www.w3.org/2000/svg">
<rect width="190" height="190" rx="20" fill="white"/>
<path d="M81.3878 65.7975C82.1024 65.0827 83.0716 64.6811 84.0823 64.6808H106.949C107.96 64.6811 108.929 65.0827 109.644 65.7975L116.149 72.3031H126.005C128.026 72.3031 129.965 73.1062 131.395 74.5356C132.824 75.9651 133.627 77.9039 133.627 79.9254V118.037C133.627 120.058 132.824 121.997 131.395 123.427C129.965 124.856 128.026 125.659 126.005 125.659H65.0266C63.005 125.659 61.0663 124.856 59.6368 123.427C58.2074 121.997 57.4043 120.058 57.4043 118.037V79.9254C57.4043 77.9039 58.2074 75.9651 59.6368 74.5356C61.0663 73.1062 63.005 72.3031 65.0266 72.3031H74.8822L81.3878 65.7975ZM85.6601 72.3031L79.1545 78.8087C78.4399 79.5235 77.4707 79.9252 76.46 79.9254H65.0266V118.037H126.005V79.9254H114.571C113.561 79.9252 112.591 79.5235 111.877 78.8087L105.371 72.3031H85.6601ZM95.5157 89.4533C93.4941 89.4533 91.5554 90.2563 90.1259 91.6858C88.6965 93.1152 87.8934 95.054 87.8934 97.0755C87.8934 99.0971 88.6965 101.036 90.1259 102.465C91.5554 103.895 93.4941 104.698 95.5157 104.698C97.5372 104.698 99.476 103.895 100.905 102.465C102.335 101.036 103.138 99.0971 103.138 97.0755C103.138 95.054 102.335 93.1152 100.905 91.6858C99.476 90.2563 97.5372 89.4533 95.5157 89.4533ZM80.2711 97.0755C80.2711 93.0324 81.8773 89.1549 84.7362 86.296C87.5951 83.4371 91.4726 81.831 95.5157 81.831C99.5588 81.831 103.436 83.4371 106.295 86.296C109.154 89.1549 110.76 93.0324 110.76 97.0755C110.76 101.119 109.154 104.996 106.295 107.855C103.436 110.714 99.5588 112.32 95.5157 112.32C91.4726 112.32 87.5951 110.714 84.7362 107.855C81.8773 104.996 80.2711 101.119 80.2711 97.0755Z" fill="#0D0D0D" fill-opacity="0.55"/>
</svg>
